<?xml version="1.0" encoding="UTF-8" standalone="no"?>
<!-- Created with Inkscape (http://www.inkscape.org/) -->
<svg xmlns:rdf="http://www.w3.org/1999/02/22-rdf-syntax-ns#" xmlns="http://www.w3.org/2000/svg" xmlns:cc="http://web.resource.org/cc/" xmlns:dc="http://purl.org/dc/elements/1.1/" xmlns:svg="http://www.w3.org/2000/svg" xmlns:inkscape="http://www.inkscape.org/namespaces/inkscape" xmlns:sodipodi="http://sodipodi.sourceforge.net/DTD/sodipodi-0.dtd" xmlns:ns1="http://sozi.baierouge.fr" xmlns:xlink="http://www.w3.org/1999/xlink" id="svg2" viewBox="0 0 159.28 396.41" version="1.0" inkscape:version="0.91 r13725">
  <g id="g3234" transform="matrix(.25991 0 0 .25991 -51.28 -20.04)">
    <path id="rect3158" style="stroke-linejoin:round;stroke:#2b2b2b;stroke-linecap:round;stroke-width:12;fill:gray" d="m201.3 1395.2c19.32 168.7 603.81 152.3 604.81 0v94.1c-12.45 130.6-546.21 159.3-604.81 0v-94.1z"/>
    <path id="rect3161" style="stroke-linejoin:round;stroke:#2b2b2b;stroke-linecap:round;stroke-width:12;fill:gray" d="m310.24 1180c54.24 83.3 339.37 83.6 376.47 0-4.01 118.2 82.57 92.6 118.52 207.4 10.69 159.9-601.71 182-603.05-1.8 11.03-108.6 131.41-73.1 108.06-205.6z"/>
    <path id="path3164" style="stroke-linejoin:round;stroke:#2b2b2b;stroke-linecap:round;stroke-width:12;fill:gray" d="m697.17 1189.1a189.11 71.024 0 1 1 -378.22 0 189.11 71.024 0 1 1 378.22 0z" transform="translate(-7.8431 -18.301)"/>
    <path id="rect3166" style="stroke-linejoin:round;stroke:#2b2b2b;stroke-linecap:round;stroke-width:12;fill:gray" d="m404.36 762.91c36.27 12.86 143.53 13.27 188.23 0-14.78 146.86 11.55 276.39 52.29 403.99-31.89 39.7-239.76 60.9-291.07 0 41.07-134.8 57.21-264.6 50.55-403.99z"/>
    <path id="path3169" style="stroke-linejoin:round;stroke:#2b2b2b;stroke-linecap:round;stroke-width:12;fill:gray" d="m606.53 629.63a212.2 87.581 0 1 1 -424.4 0 212.2 87.581 0 1 1 424.4 0z" transform="translate(103.45 55.231)"/>
    <path id="path3171" style="stroke-linejoin:round;stroke:#2b2b2b;stroke-linecap:round;stroke-width:12.7658;fill:gray" d="m557.73 605.23a115.03 73.75 0 1 1 -230.06 0 115.03 73.75 0 1 1 230.06 0z" transform="matrix(1.4037 0 0 .99601 -123.65 36.4)"/>
    <path id="rect3173" style="stroke-linejoin:round;stroke:#2b2b2b;stroke-linecap:round;stroke-width:12;fill:gray" d="m380.83 542.92c17.28 27.49 212.21 43.73 235.29 0v84.53c-30.38 28.97-188.65 43.63-235.29 0v-84.53z"/>
    <path id="path3176" style="stroke-linejoin:round;stroke:#2b2b2b;stroke-linecap:round;stroke-width:12;fill:gray" d="m644.44 560.78a139.43 55.338 0 1 1 -278.86 0 139.43 55.338 0 1 1 278.86 0z" transform="translate(-7.8431 -5.2287)"/>
    <path id="rect3178" style="stroke-linejoin:round;stroke:#2b2b2b;stroke-linecap:round;stroke-width:12;fill:gray" d="m303.7 316.77c6.22 93.7 393.35 86.8 390.85-0.43-15.83 80.03-57.92 157.94-78.87 229.63-20.83 29.67-197.29 35.25-235.29-4.36-28.61-77.99-94.17-197.43-76.69-224.84z"/>
    <path id="path3181" style="stroke-linejoin:round;stroke:#2b2b2b;stroke-linecap:round;stroke-width:12;fill:gray" d="m697.17 286.93a195.86 65.141 0 1 1 -391.72 0 195.86 65.141 0 1 1 391.72 0z" transform="translate(-1.3072 32.423)"/>
    <path id="path3183" style="stroke-linejoin:round;stroke:#2b2b2b;stroke-linecap:round;stroke-width:12;fill:gray" d="m591.28 291.28a92.592 33.769 0 1 1 -185.18 0 92.592 33.769 0 1 1 185.18 0z" transform="translate(-1,1)"/>
    <path id="rect3185" style="stroke-linejoin:round;stroke:#2b2b2b;stroke-linecap:round;stroke-width:12;fill:gray" d="m404.36 291.07c4.85 44.21 179.46 48.14 185.62 0l-5.23 26.58c-11.88 22.85-149.51 29.48-172.99-0.44l-7.4-26.14z"/>
    <path id="path3191" style="stroke-linejoin:round;fill-opacity:.38667;stroke:#646464;stroke-linecap:round;stroke-width:12;fill:gray" d="m395.39 139.54h68.95l-7.35-38.67 37.09-22.764 39.71 22.764-10.41 38.67h60.68l-0.11 85.95h-44.99l11.55 59.15h-115.47l13.29-59.15h-52.18l-0.76-85.95z"/>
    <path id="rect3211" style="stroke-linejoin:round;stroke:#646464;stroke-linecap:round;stroke-width:12;fill:gray" d="m523.31 139.22l60.57 0.43 14.05 16.99-60.68-0.32-13.94-17.1z"/>
    <path id="rect3193" style="stroke-linejoin:round;stroke:#646464;stroke-linecap:round;stroke-width:12;fill:gray" d="m396.95 139.87l12.2 15.69 0.44 86.71-13.08-16.56 0.44-85.84z"/>
    <path id="rect3196" style="stroke-linejoin:round;stroke:#646464;stroke-linecap:round;stroke-width:12;fill:gray" d="m396.4 139.65l67.43 0.11 14.27 16.56-68.08-0.33-13.62-16.34z"/>
    <path id="rect3199" style="stroke-linejoin:round;stroke:#646464;stroke-linecap:round;stroke-width:12;fill:gray" d="m448.36 225.49l13.73 16.78-13.29 59.25-13.51-17.64 13.07-58.39z"/>
    <path id="rect3202" style="stroke-linejoin:round;stroke:#646464;stroke-linecap:round;stroke-width:12;fill:gray" d="m457.19 101.52l13.72 16.45 7.08 38.46-13.72-16.56-7.08-38.35z"/>
    <path id="rect3205" style="stroke-linejoin:round;stroke:#646464;stroke-linecap:round;stroke-width:12;fill:gray" d="m456.86 100.98l37.26-22.876 13.4 16.885-36.5 22.551-14.16-16.56z"/>
    <path id="rect3208" style="stroke-linejoin:round;stroke:#646464;stroke-linecap:round;stroke-width:12;fill:gray" d="m494.33 78.213l39.33 22.437 13.51 16.78-39.55-22.223-13.29-16.994z"/>
    <path id="rect3188" style="stroke-linejoin:round;stroke:#464646;stroke-linecap:round;stroke-width:12;fill:gray" d="m409.15 156.43h68.95l-7.35-38.67 37.09-22.771 39.71 22.771-10.41 38.67h60.68l-0.11 85.94h-44.99l11.55 59.15h-115.47l13.29-59.15h-52.18l-0.76-85.94z"/>
  </g>
  <metadata>
    <rdf:RDF>
      <cc:Work>
        <dc:format>image/svg+xml</dc:format>
        <dc:type rdf:resource="http://purl.org/dc/dcmitype/StillImage"/>
        <cc:license rdf:resource="http://creativecommons.org/licenses/publicdomain/"/>
        <dc:publisher>
          <cc:Agent rdf:about="http://openclipart.org/">
            <dc:title>Openclipart</dc:title>
          </cc:Agent>
        </dc:publisher>
        <dc:title>White King (Chess)</dc:title>
        <dc:date>2008-08-20T08:58:41</dc:date>
        <dc:description>A white king. This is just a quick do-up of of johnpwarren's black king in white.</dc:description>
        <dc:source>https://openclipart.org/detail/18513/white-king-(chess)-by-portablejim</dc:source>
        <dc:creator>
          <cc:Agent>
            <dc:title>portablejim</dc:title>
          </cc:Agent>
        </dc:creator>
        <dc:subject>
          <rdf:Bag>
            <rdf:li>chess</rdf:li>
            <rdf:li>game</rdf:li>
            <rdf:li>icon</rdf:li>
            <rdf:li>remix</rdf:li>
          </rdf:Bag>
        </dc:subject>
      </cc:Work>
      <cc:License rdf:about="http://creativecommons.org/licenses/publicdomain/">
        <cc:permits rdf:resource="http://creativecommons.org/ns#Reproduction"/>
        <cc:permits rdf:resource="http://creativecommons.org/ns#Distribution"/>
        <cc:permits rdf:resource="http://creativecommons.org/ns#DerivativeWorks"/>
      </cc:License>
    </rdf:RDF>
  </metadata>
</svg>
